<svg width="284" height="260" viewBox="0 0 284 260" fill="none" xmlns="http://www.w3.org/2000/svg">
<rect width="283.636" height="260" rx="33.0909" fill="white"/>
<path d="M105.469 129.647H61.6457C60.0842 129.647 58.8184 128.381 58.8184 126.819V44.8273C58.8184 43.2658 60.0842 42 61.6457 42H142.577C203.93 43.6964 222.331 101.138 223.863 129.647C225.842 191.565 170.497 214.348 142.577 218H65.4783C62.9832 218 61.7113 215.004 63.4443 213.209L107.294 167.793C107.923 167.141 108.855 166.836 109.754 166.954C162.233 173.858 174.025 145.055 173.324 129.647C176.054 94.1642 134.209 90.0812 110.747 92.5966C109.339 92.7476 108.296 93.9489 108.296 95.3652V126.819C108.296 128.381 107.03 129.647 105.469 129.647Z" fill="black"/>
</svg>
