<svg width="260" height="260" viewBox="0 0 260 260" fill="none" xmlns="http://www.w3.org/2000/svg">
<g clip-path="url(#clip0_8059_40)">
<path d="M257.269 48.555C254.518 47.2117 253.326 49.7792 251.723 51.09C251.17 51.5125 250.704 52.065 250.239 52.5634C246.209 56.8642 241.507 59.6809 235.364 59.345C226.384 58.8467 218.714 61.6634 211.932 68.5317C210.491 60.06 205.703 55.0117 198.423 51.7617C194.609 50.0717 190.753 48.3925 188.077 44.72C186.214 42.1092 185.704 39.195 184.773 36.335C184.177 34.6017 183.581 32.8359 181.599 32.5434C179.432 32.2075 178.587 34.0167 177.742 35.5334C174.351 41.73 173.04 48.555 173.17 55.4667C173.463 71.0234 180.028 83.4167 193.082 92.2242C194.566 93.2317 194.945 94.25 194.479 95.7234C193.591 98.7567 192.529 101.703 191.598 104.748C191.002 106.687 190.114 107.098 188.034 106.264C181.006 103.244 174.622 98.9044 169.227 93.4809C159.943 84.5109 151.558 74.6092 141.093 66.8525C138.668 65.0609 136.178 63.3589 133.629 61.75C122.958 51.3825 135.037 42.8675 137.832 41.86C140.757 40.7984 138.839 37.18 129.393 37.2234C119.946 37.2667 111.301 40.4192 100.284 44.6334C98.6464 45.2608 96.962 45.757 95.2461 46.1175C84.9504 44.1777 74.4207 43.8051 64.0136 45.0125C43.5928 47.2875 27.2886 56.9509 15.2961 73.4284C0.887787 93.2317 -2.50305 115.743 1.64612 139.208C6.01196 163.952 18.6436 184.438 38.0461 200.449C58.1745 217.057 81.347 225.193 107.791 223.633C123.846 222.712 141.732 220.556 161.893 203.483C166.984 206.018 172.314 207.025 181.176 207.783C188.001 208.423 194.566 207.458 199.647 206.397C207.609 204.707 207.057 197.329 204.186 195.986C180.84 185.109 185.964 189.54 181.295 185.954C193.169 171.914 211.044 157.333 218.042 110.088C218.584 106.329 218.118 103.968 218.042 100.934C217.999 99.0925 218.421 98.3667 220.534 98.1609C226.395 97.5528 232.081 95.8048 237.271 93.015C252.394 84.7492 258.504 71.1859 259.945 54.9142C260.162 52.4225 259.902 49.8659 257.269 48.555ZM125.46 195C102.829 177.212 91.8553 171.351 87.327 171.6C83.0803 171.86 83.8495 176.703 84.7811 179.866C85.7561 182.986 87.0236 185.131 88.8003 187.872C90.0353 189.681 90.8803 192.378 87.5761 194.404C80.2853 198.911 67.6211 192.888 67.0253 192.595C52.2811 183.907 39.942 172.445 31.2645 156.769C22.8795 141.678 18.0045 125.493 17.2028 108.214C16.9861 104.033 18.2103 102.559 22.3703 101.801C27.8315 100.756 33.4271 100.613 38.9345 101.378C62.0311 104.758 81.6828 115.083 98.1711 131.43C107.574 140.747 114.692 151.873 122.026 162.749C129.826 174.298 138.211 185.304 148.893 194.318C152.663 197.481 155.664 199.886 158.545 201.652C149.857 202.627 135.362 202.843 125.46 195ZM136.294 125.233C136.292 124.695 136.421 124.165 136.67 123.688C136.919 123.211 137.28 122.801 137.723 122.495C138.166 122.189 138.676 121.995 139.21 121.931C139.745 121.866 140.287 121.933 140.789 122.124C141.43 122.354 141.984 122.778 142.372 123.338C142.76 123.897 142.965 124.563 142.956 125.244C142.958 125.684 142.872 126.12 142.703 126.526C142.534 126.933 142.286 127.301 141.974 127.611C141.661 127.92 141.29 128.165 140.882 128.329C140.474 128.494 140.038 128.576 139.598 128.57C139.161 128.572 138.729 128.486 138.326 128.318C137.923 128.151 137.557 127.904 137.25 127.593C136.944 127.283 136.702 126.914 136.54 126.509C136.377 126.103 136.286 125.67 136.294 125.233ZM169.985 142.523C167.819 143.401 165.663 144.159 163.594 144.257C160.481 144.365 157.426 143.393 154.949 141.505C151.98 139.013 149.857 137.627 148.969 133.293C148.662 131.176 148.721 129.021 149.142 126.923C149.9 123.381 149.055 121.106 146.553 119.048C144.527 117.358 141.938 116.892 139.099 116.892C138.128 116.835 137.184 116.545 136.348 116.047C135.998 115.888 135.686 115.658 135.431 115.372C135.176 115.085 134.984 114.748 134.868 114.382C134.752 114.017 134.713 113.631 134.755 113.249C134.798 112.868 134.919 112.5 135.113 112.168C135.416 111.583 136.846 110.153 137.193 109.893C141.049 107.705 145.502 108.42 149.608 110.067C153.421 111.627 156.303 114.487 160.452 118.538C164.688 123.424 165.457 124.778 167.873 128.44C169.779 131.311 171.513 134.258 172.694 137.627C173.419 139.739 172.488 141.462 169.985 142.523Z" fill="#4D6BFE"/>
</g>
<defs>
<clipPath id="clip0_8059_40">
<rect width="260" height="260" fill="white"/>
</clipPath>
</defs>
</svg>
