<svg width="142" height="40" viewBox="0 0 142 40" fill="none" xmlns="http://www.w3.org/2000/svg">
<rect width="40" height="40" rx="7.5" fill="url(#paint0_linear_8005_21954)"/>
<path fill-rule="evenodd" clip-rule="evenodd" d="M28.7336 15.0337C28.657 14.6726 28.6702 14.7238 28.641 14.6017C27.9002 15.0432 26.7331 16.1063 25.4043 17.4587C27.3915 20.1769 25.7704 23.7361 23.9857 26.2121C22.2944 28.5585 15.3082 36.0408 12.2944 33.0443C9.58885 30.3544 15.1266 24.7049 17.0468 22.7487C17.4983 22.2889 19.0049 20.8246 20.8114 19.2168C19.3435 18.7853 16.8762 18.8524 16.1801 18.884C13.823 18.991 10.1127 18.8089 9.90046 15.7123C9.51799 10.1274 24.597 2.74021 29.2947 8.11857C30.0879 9.02673 29.1998 9.44643 28.4912 8.99214C25.2739 6.92929 19.6009 9.09892 16.9847 11.3325C11.1001 16.3563 19.656 12.8402 24.2722 16.3165C26.4526 14.6294 28.4213 13.4471 29.0218 14.0877C29.3654 14.4545 28.9725 14.8147 28.7338 15.0335L28.7336 15.0337ZM28.6276 14.5461L28.611 14.4773L28.6004 14.4721C28.5841 14.4998 28.6055 14.5247 28.6276 14.5461ZM21.7662 21.4C19.5501 23.9194 17.4979 26.4435 16.634 27.6845C16.4087 28.008 16.0179 28.5873 15.6722 29.2038C18.024 27.3939 21.0173 23.9024 21.7662 21.4Z" fill="#E9EAF0"/>
<path d="M61.2871 31.3369C59.5879 31.3369 58.1133 31.0732 56.8633 30.5459C55.6133 30.0186 54.6367 29.252 53.9336 28.2461C53.2305 27.2305 52.8496 26 52.791 24.5547H56.6875C56.7461 25.3164 56.9805 25.9512 57.3906 26.459C57.8008 26.957 58.3379 27.333 59.002 27.5869C59.6758 27.8408 60.4229 27.9678 61.2432 27.9678C62.1025 27.9678 62.8594 27.8359 63.5137 27.5723C64.168 27.3086 64.6807 26.9424 65.0518 26.4736C65.4229 26.0049 65.6084 25.458 65.6084 24.833C65.6084 24.2666 65.4424 23.8027 65.1104 23.4414C64.7783 23.0703 64.3193 22.7578 63.7334 22.5039C63.1475 22.25 62.459 22.0254 61.668 21.8301L59.1924 21.1855C57.3955 20.7266 55.9795 20.0283 54.9443 19.0908C53.9092 18.1436 53.3916 16.8838 53.3916 15.3115C53.3916 14.0225 53.7383 12.8994 54.4316 11.9424C55.125 10.9756 56.0723 10.2236 57.2734 9.68652C58.4844 9.14941 59.8516 8.88086 61.375 8.88086C62.9277 8.88086 64.29 9.14941 65.4619 9.68652C66.6338 10.2236 67.5518 10.9658 68.2158 11.9131C68.8799 12.8604 69.2266 13.9492 69.2559 15.1797H65.4326C65.335 14.2422 64.9199 13.5195 64.1875 13.0117C63.4648 12.4941 62.5127 12.2354 61.3311 12.2354C60.5107 12.2354 59.8027 12.3574 59.207 12.6016C58.6211 12.8457 58.1719 13.1826 57.8594 13.6123C57.5469 14.042 57.3906 14.5303 57.3906 15.0771C57.3906 15.6826 57.5713 16.1807 57.9326 16.5713C58.3037 16.9521 58.7725 17.2598 59.3389 17.4941C59.915 17.7285 60.501 17.9238 61.0967 18.0801L63.1328 18.5928C63.9531 18.7881 64.7441 19.0518 65.5059 19.3838C66.2676 19.7061 66.9512 20.1162 67.5566 20.6143C68.1719 21.1025 68.6553 21.6982 69.0068 22.4014C69.3682 23.1045 69.5488 23.9297 69.5488 24.877C69.5488 26.1465 69.2217 27.2695 68.5674 28.2461C67.9131 29.2129 66.9707 29.9697 65.7402 30.5166C64.5098 31.0635 63.0254 31.3369 61.2871 31.3369ZM79.9199 14.623V17.6113H70.5303V14.623H79.9199ZM72.8301 10.7266H76.6826V26.0781C76.6826 26.7227 76.8242 27.2012 77.1074 27.5137C77.3906 27.8164 77.8398 27.9678 78.4551 27.9678C78.6211 27.9678 78.8066 27.9531 79.0117 27.9238C79.2168 27.8945 79.4023 27.8604 79.5684 27.8213L80.2275 30.8389C79.8174 30.9658 79.4023 31.0586 78.9824 31.1172C78.5625 31.1855 78.1426 31.2197 77.7227 31.2197C76.1992 31.2197 75.0029 30.8193 74.1338 30.0186C73.2646 29.208 72.8301 28.1045 72.8301 26.708V10.7266ZM82.0439 31V14.623H85.7793V17.377H85.9551C86.248 16.4199 86.7607 15.6875 87.4932 15.1797C88.2256 14.6621 89.0605 14.4033 89.998 14.4033C90.2031 14.4033 90.4375 14.4131 90.7012 14.4326C90.9746 14.4521 91.1992 14.4766 91.375 14.5059V18.0508C91.209 17.9922 90.9502 17.9434 90.5986 17.9043C90.2471 17.8652 89.9102 17.8457 89.5879 17.8457C88.875 17.8457 88.2402 17.9971 87.6836 18.2998C87.127 18.6025 86.6875 19.0176 86.3652 19.5449C86.0527 20.0723 85.8965 20.6875 85.8965 21.3906V31H82.0439ZM99.2852 31.3223C97.6836 31.3223 96.2969 30.9707 95.125 30.2676C93.9531 29.5645 93.0449 28.5781 92.4004 27.3086C91.7656 26.0391 91.4482 24.5645 91.4482 22.8848C91.4482 21.1953 91.7656 19.7158 92.4004 18.4463C93.0449 17.167 93.9531 16.1758 95.125 15.4727C96.2969 14.7695 97.6836 14.418 99.2852 14.418C100.887 14.418 102.273 14.7695 103.445 15.4727C104.617 16.1758 105.525 17.167 106.17 18.4463C106.814 19.7158 107.137 21.1953 107.137 22.8848C107.137 24.5645 106.814 26.0391 106.17 27.3086C105.525 28.5781 104.617 29.5645 103.445 30.2676C102.273 30.9707 100.887 31.3223 99.2852 31.3223ZM99.2852 28.2168C100.174 28.2168 100.906 27.9824 101.482 27.5137C102.059 27.0352 102.488 26.3906 102.771 25.5801C103.064 24.7695 103.211 23.8711 103.211 22.8848C103.211 21.8789 103.064 20.9707 102.771 20.1602C102.488 19.3496 102.059 18.71 101.482 18.2412C100.906 17.7627 100.174 17.5234 99.2852 17.5234C98.416 17.5234 97.6885 17.7627 97.1025 18.2412C96.5166 18.71 96.0771 19.3496 95.7842 20.1602C95.501 20.9707 95.3594 21.8789 95.3594 22.8848C95.3594 23.8711 95.501 24.7695 95.7842 25.5801C96.0771 26.3906 96.5166 27.0352 97.1025 27.5137C97.6885 27.9824 98.416 28.2168 99.2852 28.2168ZM123.323 14.623L117.493 31H113.216L107.4 14.623H111.517L115.311 26.7959H115.486L119.251 14.623H123.323ZM129.124 31.3369C128.079 31.3369 127.142 31.1514 126.312 30.7803C125.481 30.3994 124.827 29.8428 124.349 29.1104C123.87 28.3779 123.631 27.4746 123.631 26.4004C123.631 25.4824 123.802 24.7207 124.144 24.1152C124.485 23.5098 124.949 23.0264 125.535 22.665C126.131 22.3037 126.8 22.0303 127.542 21.8447C128.284 21.6494 129.051 21.5127 129.842 21.4346C130.809 21.3271 131.59 21.2344 132.186 21.1562C132.781 21.0781 133.211 20.9512 133.475 20.7754C133.748 20.5996 133.885 20.3262 133.885 19.9551V19.8818C133.885 19.0908 133.65 18.4756 133.182 18.0361C132.713 17.5967 132.029 17.377 131.131 17.377C130.184 17.377 129.432 17.582 128.875 17.9922C128.328 18.4023 127.957 18.8857 127.762 19.4424L124.173 18.9297C124.456 17.9336 124.925 17.1035 125.579 16.4395C126.233 15.7656 127.029 15.2627 127.967 14.9307C128.914 14.5889 129.959 14.418 131.102 14.418C131.883 14.418 132.664 14.5107 133.445 14.6963C134.227 14.8721 134.944 15.1748 135.599 15.6045C136.253 16.0342 136.775 16.6104 137.166 17.333C137.557 18.0557 137.752 18.959 137.752 20.043V31H134.046V28.7441H133.929C133.694 29.1934 133.362 29.6182 132.933 30.0186C132.513 30.4092 131.985 30.7266 131.351 30.9707C130.726 31.2148 129.983 31.3369 129.124 31.3369ZM130.105 28.4951C130.887 28.4951 131.561 28.3438 132.127 28.041C132.693 27.7285 133.133 27.3184 133.445 26.8105C133.758 26.293 133.914 25.7314 133.914 25.126V23.207C133.787 23.3047 133.582 23.3975 133.299 23.4854C133.016 23.5635 132.693 23.6367 132.332 23.7051C131.971 23.7734 131.614 23.832 131.263 23.8809C130.921 23.9297 130.623 23.9688 130.369 23.998C129.793 24.0762 129.275 24.208 128.816 24.3936C128.367 24.5693 128.011 24.8135 127.747 25.126C127.483 25.4385 127.352 25.8438 127.352 26.3418C127.352 27.0547 127.61 27.5918 128.128 27.9531C128.646 28.3145 129.305 28.4951 130.105 28.4951Z" fill="#E9EAF0"/>
<defs>
<linearGradient id="paint0_linear_8005_21954" x1="12.3571" y1="5" x2="30.4821" y2="40" gradientUnits="userSpaceOnUse">
<stop stop-color="#4E6BF7"/>
<stop offset="1" stop-color="#072EE4"/>
</linearGradient>
</defs>
</svg>
