<svg width="40" height="40" viewBox="0 0 40 40" fill="none" xmlns="http://www.w3.org/2000/svg">
<rect width="40" height="40" rx="7.5" fill="url(#paint0_linear_8005_21967)"/>
<path fill-rule="evenodd" clip-rule="evenodd" d="M28.7336 15.0337C28.657 14.6726 28.6702 14.7238 28.641 14.6017C27.9002 15.0432 26.7331 16.1063 25.4043 17.4587C27.3915 20.1769 25.7704 23.7361 23.9857 26.2121C22.2944 28.5585 15.3082 36.0408 12.2944 33.0443C9.58885 30.3544 15.1266 24.7049 17.0468 22.7487C17.4983 22.2889 19.0049 20.8246 20.8114 19.2168C19.3435 18.7853 16.8762 18.8524 16.1801 18.884C13.823 18.991 10.1127 18.8089 9.90046 15.7123C9.51799 10.1274 24.597 2.74021 29.2947 8.11857C30.0879 9.02673 29.1998 9.44643 28.4912 8.99214C25.2739 6.92929 19.6009 9.09892 16.9847 11.3325C11.1001 16.3563 19.656 12.8402 24.2722 16.3165C26.4526 14.6294 28.4213 13.4471 29.0218 14.0877C29.3654 14.4545 28.9725 14.8147 28.7338 15.0335L28.7336 15.0337ZM28.6276 14.5461L28.611 14.4773L28.6004 14.4721C28.5841 14.4998 28.6055 14.5247 28.6276 14.5461ZM21.7662 21.4C19.5501 23.9194 17.4979 26.4435 16.634 27.6845C16.4087 28.008 16.0179 28.5873 15.6722 29.2038C18.024 27.3939 21.0173 23.9024 21.7662 21.4Z" fill="#E9EAF0"/>
<defs>
<linearGradient id="paint0_linear_8005_21967" x1="12.3571" y1="5" x2="30.4821" y2="40" gradientUnits="userSpaceOnUse">
<stop stop-color="#4E6BF7"/>
<stop offset="1" stop-color="#072EE4"/>
</linearGradient>
</defs>
</svg>
