<svg width="312" height="260" viewBox="0 0 312 260" fill="none" xmlns="http://www.w3.org/2000/svg">
<g clip-path="url(#clip0_8059_30)">
<path d="M4.01367 255.763C12.9331 255.763 26.3121 237.033 41.921 234.357C50.8404 234.357 57.53 253.087 79.8284 255.763C95.4373 255.763 102.127 237.033 117.736 237.033C133.345 237.033 140.034 255.763 155.643 255.763C171.252 255.763 177.942 237.033 193.551 237.033C209.159 237.033 215.849 255.763 231.458 255.763C247.067 255.763 253.756 237.033 269.365 237.033C284.974 237.033 291.664 255.763 307.273 255.763" stroke="white" stroke-width="8.02744" stroke-linecap="round" stroke-linejoin="round"/>
<path d="M34.5184 237.122L24.3057 217.588L287.427 200.641C266.734 219.461 240.155 234.713 213.263 247.201" fill="white"/>
<path d="M34.5184 237.122L24.3057 217.588L287.427 200.641C266.734 219.461 240.155 234.713 213.263 247.201" stroke="white" stroke-width="8.02744" stroke-linecap="round" stroke-linejoin="round"/>
<path d="M129.064 35.6331C173.84 49.3241 236.454 115.461 257.771 186.549C246.087 181.955 237.346 177.273 220.934 181.465C205.058 123.712 176.649 68.5454 129.064 35.6331Z" fill="white" stroke="white" stroke-width="8.02744" stroke-linecap="round" stroke-linejoin="round"/>
<path d="M45.8008 4.01392C103.152 28.5422 181.821 96.8199 196.271 187.753C130.134 161.084 79.7836 175.31 44.7305 196.94C98.2022 128.974 74.209 51.6878 45.8008 4.01392Z" fill="white" stroke="white" stroke-width="8.02744" stroke-linecap="round" stroke-linejoin="round"/>
</g>
<defs>
<clipPath id="clip0_8059_30">
<rect width="311.286" height="260" fill="white"/>
</clipPath>
</defs>
</svg>
